<svg xmlns="http://www.w3.org/2000/svg" viewBox="0 28 603 155" preserveAspectRatio="xMidYMid meet">
<g fill="#0A0A0A" fill-opacity="1"><g transform="translate(0.151979, 151.266036)"><g><path d="M 52.976562 -76.214844 C 42.871094 -76.214844 36.085938 -72.027344 31.613281 -65.242188 L 31.613281 -74.480469 L 5.773438 -74.480469 L 5.773438 28.292969 L 32.332031 28.292969 L 32.332031 -8.082031 C 36.808594 -2.019531 43.449219 1.730469 52.976562 1.730469 C 73.039062 1.730469 84.730469 -13.710938 84.730469 -37.242188 C 84.730469 -60.769531 73.039062 -76.214844 52.976562 -76.214844 Z M 45.035156 -19.054688 C 36.664062 -19.054688 32.042969 -24.539062 32.042969 -37.242188 C 32.042969 -49.945312 36.664062 -55.429688 45.035156 -55.429688 C 53.40625 -55.429688 58.027344 -50.519531 58.027344 -37.820312 C 58.027344 -25.117188 53.40625 -19.054688 45.035156 -19.054688 Z M 45.035156 -19.054688 "/></g></g></g><g fill="#0A0A0A" fill-opacity="1"><g transform="translate(76.219531, 151.266036)"><g><path d="M 54.128906 -33.199219 C 54.128906 -24.25 48.355469 -20.785156 42.4375 -20.785156 C 34.929688 -20.785156 32.332031 -24.972656 32.332031 -31.898438 L 32.332031 -74.480469 L 5.773438 -74.480469 L 5.773438 -26.269531 C 5.773438 -7.074219 17.320312 1.730469 31.46875 1.730469 C 42.292969 1.730469 49.65625 -3.320312 54.707031 -9.816406 L 54.707031 0 L 80.6875 0 L 80.6875 -74.480469 L 54.128906 -74.480469 Z M 54.128906 -33.199219 "/></g></g></g><g fill="#0A0A0A" fill-opacity="1"><g transform="translate(152.575797, 151.266036)"><g><path d="M 54.996094 -76.214844 C 44.167969 -76.214844 36.808594 -71.164062 31.757812 -64.667969 L 31.757812 -74.480469 L 5.773438 -74.480469 L 5.773438 0 L 32.332031 0 L 32.332031 -41.28125 C 32.332031 -50.230469 38.105469 -53.695312 44.023438 -53.695312 C 51.53125 -53.695312 54.128906 -49.511719 54.128906 -42.582031 L 54.128906 0 L 80.6875 0 L 80.6875 -48.210938 C 80.6875 -67.410156 69.140625 -76.214844 54.996094 -76.214844 Z M 54.996094 -76.214844 "/></g></g></g><g fill="#0A0A0A" fill-opacity="1"><g transform="translate(226.766878, 151.266036)"><g><path d="M 52.542969 -74.480469 L 38.539062 -74.480469 L 38.539062 -97 L 11.980469 -97 L 11.980469 -74.480469 L 1.445312 -74.480469 L 1.445312 -55.140625 L 11.980469 -55.140625 L 11.980469 -22.804688 C 11.980469 -6.207031 20.207031 0.722656 41.28125 0.722656 C 45.035156 0.722656 48.933594 0.433594 52.542969 0 L 52.542969 -19.34375 L 47.054688 -19.34375 C 41.714844 -19.34375 38.539062 -19.773438 38.539062 -25.980469 L 38.539062 -55.140625 L 52.542969 -55.140625 Z M 52.542969 -74.480469 "/></g></g></g><g fill="#2B5282" fill-opacity="1"><g transform="translate(272.091692, 151.266036)"><g><path d="M 54.996094 -76.214844 C 44.601562 -76.214844 37.386719 -71.59375 32.332031 -65.386719 L 32.332031 -102.773438 L 5.773438 -102.773438 L 5.773438 0 L 32.332031 0 L 32.332031 -41.28125 C 32.332031 -50.230469 38.105469 -53.695312 44.023438 -53.695312 C 51.53125 -53.695312 54.128906 -49.511719 54.128906 -42.582031 L 54.128906 0 L 80.6875 0 L 80.6875 -48.210938 C 80.6875 -67.410156 69.140625 -76.214844 54.996094 -76.214844 Z M 54.996094 -76.214844 "/></g></g></g><g fill="#2B5282" fill-opacity="1"><g transform="translate(347.004508, 151.266036)"><g><path d="M 54.128906 -33.199219 C 54.128906 -24.25 48.355469 -20.785156 42.4375 -20.785156 C 34.929688 -20.785156 32.332031 -24.972656 32.332031 -31.898438 L 32.332031 -74.480469 L 5.773438 -74.480469 L 5.773438 -26.269531 C 5.773438 -7.074219 17.320312 1.730469 31.46875 1.730469 C 42.292969 1.730469 49.65625 -3.320312 54.707031 -9.816406 L 54.707031 0 L 80.6875 0 L 80.6875 -74.480469 L 54.128906 -74.480469 Z M 54.128906 -33.199219 "/></g></g></g><g fill="#2B5282" fill-opacity="1"><g transform="translate(423.360774, 151.266036)"><g><path d="M 52.976562 -76.214844 C 43.449219 -76.214844 36.808594 -72.460938 32.332031 -66.398438 L 32.332031 -102.773438 L 5.773438 -102.773438 L 5.773438 0 L 31.613281 0 L 31.613281 -9.238281 C 36.085938 -2.453125 42.871094 1.730469 52.976562 1.730469 C 73.039062 1.730469 84.730469 -13.710938 84.730469 -37.242188 C 84.730469 -60.769531 73.039062 -76.214844 52.976562 -76.214844 Z M 45.035156 -19.054688 C 36.664062 -19.054688 32.042969 -24.539062 32.042969 -37.242188 C 32.042969 -49.945312 36.664062 -55.429688 45.035156 -55.429688 C 53.40625 -55.429688 58.027344 -50.519531 58.027344 -37.820312 C 58.027344 -25.117188 53.40625 -19.054688 45.035156 -19.054688 Z M 45.035156 -19.054688 "/></g></g></g><g fill="#2B5282" fill-opacity="1"><g transform="translate(500.872144, 89.440782)"><g><path d="M 31.527344 -44.691406 L 23.125 -44.691406 L 23.125 -58.199219 L 7.1875 -58.199219 L 7.1875 -44.691406 L 0.867188 -44.691406 L 0.867188 -33.085938 L 7.1875 -33.085938 L 7.1875 -13.683594 C 7.1875 -3.722656 12.125 0.433594 24.769531 0.433594 C 27.023438 0.433594 29.359375 0.261719 31.527344 0 L 31.527344 -11.605469 L 28.234375 -11.605469 C 25.03125 -11.605469 23.125 -11.867188 23.125 -15.589844 L 23.125 -33.085938 L 31.527344 -33.085938 Z M 31.527344 -44.691406 "/></g></g></g><g fill="#2B5282" fill-opacity="1"><g transform="translate(524.021588, 89.440782)"><g><path d="M 59.585938 -45.730469 C 53.523438 -45.730469 48.585938 -42.089844 45.382812 -38.019531 C 42.785156 -43.132812 37.847656 -45.730469 31.613281 -45.730469 C 25.894531 -45.730469 22 -42.699219 19.054688 -38.800781 L 19.054688 -44.691406 L 3.464844 -44.691406 L 3.464844 0 L 19.398438 0 L 19.398438 -24.769531 C 19.398438 -30.140625 22.257812 -32.21875 25.808594 -32.21875 C 30.140625 -32.21875 31.4375 -29.707031 31.4375 -25.550781 L 31.4375 0 L 47.375 0 L 47.375 -24.769531 C 47.375 -30.140625 50.234375 -32.21875 53.785156 -32.21875 C 58.113281 -32.21875 59.414062 -29.707031 59.414062 -25.550781 L 59.414062 0 L 75.347656 0 L 75.347656 -28.496094 C 75.347656 -40.011719 68.941406 -45.730469 59.585938 -45.730469 Z M 59.585938 -45.730469 "/></g></g></g>
</svg>